<svg width='200' height='200' fill="#000000" xmlns="http://www.w3.org/2000/svg" xmlns:xlink="http://www.w3.org/1999/xlink" version="1.1" x="0px" y="0px" viewBox="0 0 100 100" enable-background="new 0 0 100 100" xml:space="preserve"><g><path d="M35.687,61.929c-0.187-0.501,0.068-1.058,0.569-1.245c0.114-0.043,11.491-4.311,14.449-7.613   c2.877-3.212,4.451-12.542,4.467-12.636c0.087-0.528,0.588-0.884,1.113-0.797c0.527,0.088,0.884,0.586,0.796,1.113   c-0.067,0.406-1.681,9.98-4.934,13.611c-3.275,3.655-14.729,7.953-15.215,8.134c-0.111,0.042-0.226,0.061-0.338,0.061   C36.201,62.558,35.832,62.318,35.687,61.929z"/><path d="M36.553,66.047c-0.203-0.495,0.034-1.06,0.528-1.262c0.128-0.052,12.815-5.285,16.62-9.461   c2.916-3.201,4.467-10.344,5.132-14.317c0.127-0.766-0.069-1.56-0.54-2.179c-0.471-0.619-1.184-1.02-1.957-1.102   c-1.461-0.158-2.788,0.864-3.014,2.318c-0.6,3.796-1.7,8.783-3.531,10.994c-2.914,3.518-12.783,6.072-13.201,6.18   c-0.517,0.134-1.045-0.18-1.177-0.697c-0.132-0.518,0.18-1.045,0.698-1.177c2.683-0.687,10.104-3.02,12.19-5.539   c1.211-1.461,2.315-5.034,3.11-10.06c0.385-2.472,2.632-4.2,5.13-3.942c1.3,0.137,2.501,0.812,3.294,1.854   c0.792,1.041,1.124,2.379,0.909,3.67c-0.855,5.11-2.522,11.913-5.61,15.302c-4.097,4.497-16.779,9.728-17.317,9.949   c-0.12,0.049-0.244,0.072-0.367,0.072C37.067,66.648,36.706,66.422,36.553,66.047z"/><path d="M56.914,79.778c-0.294,0.448-0.894,0.571-1.34,0.277c-1.982-1.304-3.721-1.262-5.471,0.131   c-0.178,0.142-0.391,0.21-0.602,0.21c-0.285,0-0.567-0.125-0.758-0.365c-0.333-0.418-0.264-1.027,0.154-1.36   c2.396-1.906,5.073-1.988,7.739-0.233C57.084,78.732,57.207,79.332,56.914,79.778z"/><path d="M61.715,79.726c-0.177,0.139-0.388,0.207-0.598,0.207c-0.287,0-0.57-0.127-0.761-0.369   c-1.305-1.657-3.993-4.406-5.647-4.731c-6.151-1.208-9.872,2.727-10.027,2.895c-0.362,0.392-0.974,0.418-1.366,0.057   c-0.393-0.361-0.421-0.97-0.061-1.364c0.184-0.201,4.584-4.911,11.827-3.487c2.896,0.568,6.404,4.937,6.795,5.433   C62.207,78.787,62.134,79.395,61.715,79.726z"/><path d="M64.947,78.05c-0.151,0.086-0.315,0.127-0.477,0.127c-0.336,0-0.663-0.176-0.842-0.488c-0.034-0.06-3.483-6-9.327-7.269   c-6.596-1.434-12.606,3.358-12.666,3.407c-0.416,0.337-1.025,0.273-1.361-0.142c-0.337-0.415-0.273-1.024,0.142-1.361   c0.274-0.222,6.802-5.423,14.295-3.795c6.702,1.456,10.442,7.93,10.599,8.204C65.574,77.197,65.412,77.786,64.947,78.05z"/><path d="M68.144,75.825c-0.153,0.089-0.321,0.132-0.486,0.132c-0.333,0.001-0.657-0.171-0.837-0.479   c-0.043-0.075-4.471-7.518-11.621-8.927c-8.064-1.586-15.842,3.868-15.919,3.924c-0.436,0.311-1.039,0.208-1.35-0.227   c-0.31-0.435-0.209-1.039,0.226-1.349c0.345-0.245,8.546-5.99,17.417-4.246c8.02,1.581,12.723,9.515,12.919,9.852   C68.762,74.964,68.606,75.556,68.144,75.825z"/><path d="M70.375,71.228c-0.191,0.243-0.474,0.369-0.761,0.369c-0.21,0-0.421-0.068-0.598-0.207   c-0.886-0.698-1.839-1.496-2.848-2.341c-4.011-3.36-9.505-7.962-12.348-6.966c-0.124,0.044-0.25,0.06-0.373,0.053   c-0.157,0.097-0.317,0.195-0.488,0.3c-0.341,0.209-0.716,0.439-1.141,0.706c-0.16,0.1-0.338,0.148-0.514,0.148   c-0.322,0-0.637-0.161-0.821-0.453c-0.284-0.453-0.148-1.05,0.305-1.334c0.432-0.271,0.814-0.505,1.159-0.717   c1.798-1.102,2.542-1.557,4.502-3.695c0.362-0.394,0.973-0.42,1.367-0.059c0.394,0.361,0.42,0.973,0.059,1.367   c-0.698,0.761-1.266,1.333-1.78,1.799c3.468,0.804,7.581,4.24,11.314,7.366c0.998,0.836,1.94,1.625,2.803,2.305   C70.633,70.2,70.706,70.809,70.375,71.228z"/><path d="M71.252,66.388c-0.147,0.387-0.515,0.626-0.905,0.626c-0.114,0-0.229-0.02-0.342-0.062c-0.31-0.117-7.62-2.926-9.585-7.677   c-3.229-7.804,1.545-16.864,1.75-17.246c0.251-0.47,0.837-0.649,1.31-0.395c0.471,0.252,0.648,0.839,0.396,1.309   c-0.046,0.086-4.543,8.643-1.668,15.592c1.649,3.985,8.413,6.58,8.481,6.606C71.189,65.33,71.441,65.889,71.252,66.388z"/><path d="M71.325,62.619c-0.033,0-0.066-0.002-0.1-0.005c-2.98-0.306-5.203-1.444-6.604-3.384c-1.663-2.302-2.066-5.674-1.166-9.751   c0.115-0.521,0.633-0.85,1.154-0.736c0.522,0.115,0.852,0.632,0.736,1.154c-0.778,3.523-0.486,6.359,0.845,8.2   c1.064,1.473,2.825,2.345,5.233,2.592c0.532,0.054,0.918,0.53,0.864,1.062C72.236,62.248,71.815,62.619,71.325,62.619z"/><path d="M71.401,58.469c-0.054,0.001-0.108,0.001-0.165,0.001c-0.864,0-2.045-0.132-2.96-1.018   c-1.545-1.496-1.868-4.688-1.949-10.436c-0.109-7.729-5.386-12.07-10.295-12.231c-4.18-0.138-5.13,2.156-6.579,6.562   c-0.695,2.116-1.484,4.679-2.967,6.853C43.384,52.751,36.112,53,35.804,53c-0.002,0-0.003,0-0.004,0   c-0.532,0-0.964-0.595-0.967-1.128c-0.003-0.534,0.428-1.052,0.962-1.055c0.066,0,6.566-0.125,9.094-3.83   c1.329-1.948,2.04-4.131,2.727-6.222c1.306-3.974,2.664-8.096,8.48-7.903c5.804,0.19,12.041,5.204,12.167,14.133   c0.066,4.719,0.323,8.299,1.36,9.303C69.876,56.542,70.279,57,71.367,57c0.006,0,0.011,0,0.018,0c0.526,0,0.958,0.189,0.967,0.717   C72.362,58.252,71.936,58.459,71.401,58.469z"/><path d="M36.861,47.603c4.052-1.233,4.486-3.151,5.088-5.805c0.538-2.373,1.148-5.063,4.45-7.478   c0.43-0.315,1.036-0.222,1.352,0.21c0.315,0.431,0.221,1.037-0.21,1.352c-2.717,1.987-3.197,4.103-3.704,6.344   c-0.632,2.787-1.285,5.669-6.412,7.229c-0.094,0.029-0.189,0.042-0.282,0.042c-0.415,0-0.798-0.269-0.925-0.686   C36.061,48.299,36.35,47.758,36.861,47.603z"/><path d="M72.287,54.428c-0.052,0.497-0.472,0.866-0.961,0.866c-0.033,0-0.067-0.002-0.102-0.005   c-0.531-0.055-0.917-0.531-0.862-1.062c0.011-0.108,1.056-10.859-4.514-17.511c-2.619-3.127-6.324-4.886-11.013-5.229   c-5.796-0.421-10.451,1.713-13.845,6.348c-2.586,3.532-3.443,7.265-3.451,7.302c-0.117,0.521-0.637,0.848-1.155,0.734   c-0.521-0.116-0.85-0.632-0.735-1.153c0.036-0.164,3.788-16.288,19.327-15.161c5.234,0.382,9.394,2.376,12.362,5.924   C73.434,42.77,72.336,53.956,72.287,54.428z"/><path d="M34,12L17,27v65h70V12H34z M84,89H20V29.143L20.157,29H36V15h48V89z"/></g></svg>